<svg id="Layer_1" xmlns="http://www.w3.org/2000/svg" viewBox="0 0 256 256"><style>.st1{fill:#fff}</style><linearGradient id="XMLID_3_" gradientUnits="userSpaceOnUse" x1="221.467" y1="-21.579" x2="34.533" y2="277.579"><stop offset="0" stop-color="#1066b1"/><stop offset="1" stop-color="#7c3b97"/></linearGradient><path id="XMLID_2_" fill="url(#XMLID_3_)" d="M0 0h256v256H0z"/><g id="XMLID_118_"><g id="XMLID_112_"><path id="XMLID_113_" class="st1" d="M219.7 61.3H72.9L70 45.9c-.7-3.9-4.2-6.8-8.2-6.8H32.2c-2.3 0-4.2 1.9-4.2 4.2v2.8c0 2.3 1.9 4.2 4.2 4.2h27.3l24.3 129.5c-3.6 3.9-5.8 9.2-5.8 14.9 0 12.3 9.9 22.2 22.2 22.2s22.2-9.9 22.2-22.2c0-3.9-1-7.7-3-11.1h50.4c-2 3.4-3 7.2-3 11.1 0 12.3 9.9 22.2 22.2 22.2s22.2-9.9 22.2-22.2c0-6.2-2.6-11.9-6.7-15.9-.9-3.6-4.1-6.3-8.1-6.3H93.7l-4.2-22.2h115.1c3.9 0 7.4-2.8 8.2-6.6l15-72.2c1.1-5.3-2.9-10.2-8.1-10.2zM111.3 194.7c0 6.1-5 11.1-11.1 11.1s-11.1-5-11.1-11.1 5-11.1 11.1-11.1 11.1 4.9 11.1 11.1zm77.8 11.1c-6.1 0-11.1-5-11.1-11.1s5-11.1 11.1-11.1 11.1 5 11.1 11.1-5 11.1-11.1 11.1zm13.3-66.7H87.5L75 72.4h141.3l-13.9 66.7z"/></g><g id="XMLID_119_"><path id="XMLID_120_" class="st1" d="M131.6 96.9v-7c3.2-.1 5.5-.4 6.8-.6 2.1-.5 3.7-1.4 5-2.7.9-.9 1.6-2.2 2-3.7.3-.9.4-1.6.4-2.1h8.6V133h-10.5V97h-12.3z"/></g></g></svg>